<svg version="1.2" xmlns="http://www.w3.org/2000/svg" viewBox="0 0 300 300" width="300" height="300"><style>.a{fill:#273a61}.b{fill:#fff}</style><path class="a" d="m0 199.6q0 5.8 0 11.5 0 4.9 0.2 9.7c0.2 7 0.6 14.1 1.8 21.1 1.3 7 3.4 13.6 6.6 20 3.2 6.3 7.4 12.1 12.4 17.1 5 5 10.8 9.2 17.1 12.4 6.4 3.2 13 5.3 20 6.6 7 1.2 14.1 1.6 21.1 1.8q4.8 0.2 9.7 0.2 5.7 0 11.5 0h99.2q5.8 0 11.5 0 4.9 0 9.7-0.2c7-0.2 14.1-0.6 21.1-1.8 7-1.3 13.6-3.4 20-6.6 6.3-3.2 12.1-7.4 17.1-12.4 5-5 9.2-10.8 12.4-17.1 3.2-6.4 5.3-13 6.6-20 1.2-7 1.6-14.1 1.8-21.1q0.2-4.8 0.2-9.7 0-5.7 0-11.5v-99.2q0-5.8 0-11.5 0-4.9-0.2-9.7c-0.2-7-0.6-14.1-1.8-21.1-1.3-7-3.4-13.6-6.6-20-3.2-6.3-7.4-12.1-12.4-17.1-5-5-10.8-9.2-17.1-12.4-6.4-3.2-13-5.3-20-6.6-7-1.2-14.1-1.6-21.1-1.8q-4.8-0.2-9.7-0.2-5.7 0-11.5 0h-99.2q-5.8 0-11.5 0-4.9 0-9.7 0.2c-7 0.2-14.1 0.6-21.1 1.8-7 1.3-13.6 3.4-20 6.6-6.3 3.2-12.1 7.4-17.1 12.4-5 5-9.2 10.8-12.4 17.1-3.2 6.4-5.3 13-6.6 20-1.2 7-1.6 14.1-1.8 21.1q-0.2 4.8-0.2 9.7 0 5.7 0 11.5z"/><path fill-rule="evenodd" class="b" d="m150 25c34.1 0 102 22.5 102 43.5 0 21 0 45.4 0 45.4l-22 13.1v34l23 13.4c0 0 0 45.1 0 65.9 0 20.8-69.1 34.9-103 34.9-33.9 0-102-13-102-34.9 0-21.9 0-65.9 0-65.9l23-13.4v-34l-23-13.1c0 0 0-23.5 0-45.4 0-21.9 67.9-43.5 102-43.5zm-79 47.2v29.3l22 12.4v60.5l-22 11.9v50.5c0 0 38.9 15.2 79 15.2 40.1 0 79-15.2 79-15.2v-50.5l-22-11.9v-60.5l22-12.4v-29.3c0 0-15.6-15.9-57-23.2-8.9 15.9-9 16-9 16h-23c0 0 0-0.3-10-16-44.2 7.1-59 23.2-59 23.2zm69-7.2q0 0 0 0zm10 34.5c5.7 0 15.7 2.2 18 4.5 2.3 2.3 10 43.6 10 57 0 13.4 1 53.8 1 56.1 0 2.4-8 7.6-29 7.6-21 0-27-4.6-27-7.6 0-3-1-38.2-1-56.1 0-17.9 7.3-53.3 10-56 2.7-2.7 12.3-5.5 18-5.5z"/></svg>